<mxfile host="app.diagrams.net" agent="Mozilla/5.0 (Windows NT 10.0; Win64; x64) AppleWebKit/537.36 (KHTML, like Gecko) Chrome/134.0.0.0 Safari/537.36 Edg/134.0.0.0" version="26.1.3">
  <diagram name="Page-1" id="XGahArAtt2Lf4uS-jcl0">
    <mxGraphModel dx="2768" dy="687" grid="1" gridSize="10" guides="1" tooltips="1" connect="1" arrows="1" fold="1" page="0" pageScale="1" pageWidth="850" pageHeight="1100" background="none" math="0" shadow="0">
      <root>
        <mxCell id="0" />
        <mxCell id="1" parent="0" />
        <mxCell id="IJctZO4Lj4U6wVQgpi5t-3" value="" style="rounded=1;whiteSpace=wrap;html=1;" parent="1" vertex="1">
          <mxGeometry x="-80" y="480" width="280" height="160" as="geometry" />
        </mxCell>
        <mxCell id="IJctZO4Lj4U6wVQgpi5t-4" value="&lt;font face=&quot;Tahoma&quot;&gt;RNN Node&lt;/font&gt;" style="text;html=1;align=center;verticalAlign=middle;resizable=0;points=[];autosize=1;strokeColor=none;fillColor=none;fontSize=16;" parent="1" vertex="1">
          <mxGeometry x="10" y="440" width="100" height="30" as="geometry" />
        </mxCell>
        <mxCell id="IJctZO4Lj4U6wVQgpi5t-10" style="edgeStyle=none;curved=1;rounded=0;orthogonalLoop=1;jettySize=auto;html=1;entryX=0.5;entryY=1;entryDx=0;entryDy=0;fontSize=12;startSize=8;endSize=8;" parent="1" source="IJctZO4Lj4U6wVQgpi5t-7" target="IJctZO4Lj4U6wVQgpi5t-9" edge="1">
          <mxGeometry relative="1" as="geometry" />
        </mxCell>
        <mxCell id="IJctZO4Lj4U6wVQgpi5t-7" value="&lt;div style=&quot;line-height: 100%;&quot;&gt;x&lt;span&gt;&lt;sub&gt;t&lt;/sub&gt;&lt;/span&gt;&lt;/div&gt;" style="ellipse;whiteSpace=wrap;html=1;aspect=fixed;fillColor=#b0e3e6;strokeColor=#0e8088;fontSize=16;shadow=1;" parent="1" vertex="1">
          <mxGeometry x="-42.5" y="680" width="40" height="40" as="geometry" />
        </mxCell>
        <mxCell id="IJctZO4Lj4U6wVQgpi5t-17" style="edgeStyle=orthogonalEdgeStyle;rounded=0;orthogonalLoop=1;jettySize=auto;html=1;exitX=1;exitY=0.5;exitDx=0;exitDy=0;entryX=0.5;entryY=1;entryDx=0;entryDy=0;fontSize=12;startSize=8;endSize=8;" parent="1" source="IJctZO4Lj4U6wVQgpi5t-9" target="IJctZO4Lj4U6wVQgpi5t-15" edge="1">
          <mxGeometry relative="1" as="geometry" />
        </mxCell>
        <mxCell id="IJctZO4Lj4U6wVQgpi5t-9" value="&lt;font face=&quot;Tahoma&quot; style=&quot;font-size: 16px; line-height: 100%;&quot;&gt;linear&lt;/font&gt;" style="rounded=0;whiteSpace=wrap;html=1;fillColor=#fad7ac;strokeColor=#b46504;" parent="1" vertex="1">
          <mxGeometry x="-55" y="590" width="65" height="30" as="geometry" />
        </mxCell>
        <mxCell id="IJctZO4Lj4U6wVQgpi5t-16" style="edgeStyle=orthogonalEdgeStyle;rounded=0;orthogonalLoop=1;jettySize=auto;html=1;exitX=1;exitY=0.5;exitDx=0;exitDy=0;entryX=0;entryY=0.5;entryDx=0;entryDy=0;fontSize=12;startSize=8;endSize=8;" parent="1" source="IJctZO4Lj4U6wVQgpi5t-11" target="IJctZO4Lj4U6wVQgpi5t-15" edge="1">
          <mxGeometry relative="1" as="geometry" />
        </mxCell>
        <mxCell id="IJctZO4Lj4U6wVQgpi5t-11" value="&lt;font face=&quot;Tahoma&quot; style=&quot;font-size: 16px; line-height: 100%;&quot;&gt;linear&lt;/font&gt;" style="rounded=0;whiteSpace=wrap;html=1;fillColor=#fad7ac;strokeColor=#b46504;" parent="1" vertex="1">
          <mxGeometry x="-55" y="500" width="65" height="30" as="geometry" />
        </mxCell>
        <mxCell id="IJctZO4Lj4U6wVQgpi5t-23" style="edgeStyle=none;curved=1;rounded=0;orthogonalLoop=1;jettySize=auto;html=1;entryX=0.5;entryY=0;entryDx=0;entryDy=0;fontSize=12;startSize=8;endSize=8;" parent="1" source="IJctZO4Lj4U6wVQgpi5t-13" target="IJctZO4Lj4U6wVQgpi5t-22" edge="1">
          <mxGeometry relative="1" as="geometry" />
        </mxCell>
        <mxCell id="IJctZO4Lj4U6wVQgpi5t-27" style="edgeStyle=none;curved=1;rounded=0;orthogonalLoop=1;jettySize=auto;html=1;fontSize=12;startSize=8;endSize=8;entryX=0;entryY=0.5;entryDx=0;entryDy=0;" parent="1" source="IJctZO4Lj4U6wVQgpi5t-13" edge="1">
          <mxGeometry relative="1" as="geometry">
            <mxPoint x="315" y="515" as="targetPoint" />
          </mxGeometry>
        </mxCell>
        <mxCell id="IJctZO4Lj4U6wVQgpi5t-13" value="&lt;font face=&quot;Tahoma&quot; style=&quot;font-size: 16px; line-height: 100%;&quot;&gt;tanh&lt;/font&gt;" style="rounded=1;whiteSpace=wrap;html=1;fillColor=#fad9d5;strokeColor=#ae4132;gradientColor=none;arcSize=50;" parent="1" vertex="1">
          <mxGeometry x="110" y="500" width="60" height="30" as="geometry" />
        </mxCell>
        <mxCell id="IJctZO4Lj4U6wVQgpi5t-19" style="edgeStyle=none;curved=1;rounded=0;orthogonalLoop=1;jettySize=auto;html=1;entryX=0;entryY=0.5;entryDx=0;entryDy=0;fontSize=12;startSize=8;endSize=8;" parent="1" source="IJctZO4Lj4U6wVQgpi5t-15" target="IJctZO4Lj4U6wVQgpi5t-13" edge="1">
          <mxGeometry relative="1" as="geometry" />
        </mxCell>
        <mxCell id="IJctZO4Lj4U6wVQgpi5t-15" value="&lt;font face=&quot;Tahoma&quot;&gt;&lt;b style=&quot;line-height: 100%;&quot;&gt;+&lt;/b&gt;&lt;/font&gt;" style="ellipse;whiteSpace=wrap;html=1;aspect=fixed;fillColor=#fad9d5;strokeColor=#ae4132;" parent="1" vertex="1">
          <mxGeometry x="50" y="505" width="20" height="20" as="geometry" />
        </mxCell>
        <mxCell id="IJctZO4Lj4U6wVQgpi5t-18" style="edgeStyle=none;curved=1;rounded=0;orthogonalLoop=1;jettySize=auto;html=1;exitX=0;exitY=0.5;exitDx=0;exitDy=0;fontSize=12;startSize=8;endSize=8;" parent="1" source="IJctZO4Lj4U6wVQgpi5t-13" target="IJctZO4Lj4U6wVQgpi5t-13" edge="1">
          <mxGeometry relative="1" as="geometry" />
        </mxCell>
        <mxCell id="IJctZO4Lj4U6wVQgpi5t-25" style="edgeStyle=none;curved=1;rounded=0;orthogonalLoop=1;jettySize=auto;html=1;entryX=0.5;entryY=0;entryDx=0;entryDy=0;fontSize=12;startSize=8;endSize=8;" parent="1" source="IJctZO4Lj4U6wVQgpi5t-22" target="IJctZO4Lj4U6wVQgpi5t-24" edge="1">
          <mxGeometry relative="1" as="geometry" />
        </mxCell>
        <mxCell id="IJctZO4Lj4U6wVQgpi5t-22" value="&lt;font face=&quot;Tahoma&quot; style=&quot;font-size: 16px; line-height: 100%;&quot;&gt;linear&lt;/font&gt;" style="rounded=0;whiteSpace=wrap;html=1;fillColor=#fad7ac;strokeColor=#b46504;" parent="1" vertex="1">
          <mxGeometry x="107.5" y="550" width="65" height="30" as="geometry" />
        </mxCell>
        <mxCell id="IJctZO4Lj4U6wVQgpi5t-30" style="edgeStyle=none;curved=1;rounded=0;orthogonalLoop=1;jettySize=auto;html=1;entryX=0.5;entryY=0;entryDx=0;entryDy=0;fontSize=12;startSize=8;endSize=8;" parent="1" source="IJctZO4Lj4U6wVQgpi5t-24" target="IJctZO4Lj4U6wVQgpi5t-29" edge="1">
          <mxGeometry relative="1" as="geometry" />
        </mxCell>
        <mxCell id="IJctZO4Lj4U6wVQgpi5t-24" value="&lt;font face=&quot;Tahoma&quot; style=&quot;font-size: 16px; line-height: 100%;&quot;&gt;softmax&lt;/font&gt;" style="rounded=1;whiteSpace=wrap;html=1;fillColor=#fad9d5;strokeColor=#ae4132;arcSize=50;" parent="1" vertex="1">
          <mxGeometry x="107.5" y="600" width="65" height="30" as="geometry" />
        </mxCell>
        <mxCell id="IJctZO4Lj4U6wVQgpi5t-29" value="&lt;div style=&quot;line-height: 100%;&quot;&gt;&lt;font style=&quot;font-size: 16px;&quot;&gt;h&lt;sub&gt;t&lt;/sub&gt;&lt;/font&gt;&lt;/div&gt;" style="ellipse;whiteSpace=wrap;html=1;aspect=fixed;fillColor=#d0cee2;strokeColor=#56517e;shadow=1;" parent="1" vertex="1">
          <mxGeometry x="120" y="680" width="40" height="40" as="geometry" />
        </mxCell>
        <mxCell id="IJctZO4Lj4U6wVQgpi5t-53" style="edgeStyle=none;curved=1;rounded=0;orthogonalLoop=1;jettySize=auto;html=1;exitX=1;exitY=0.5;exitDx=0;exitDy=0;fontSize=12;startSize=8;endSize=8;entryX=0;entryY=0.5;entryDx=0;entryDy=0;" parent="1" target="IJctZO4Lj4U6wVQgpi5t-11" edge="1">
          <mxGeometry relative="1" as="geometry">
            <mxPoint x="-200" y="515" as="sourcePoint" />
            <mxPoint x="-80" y="515" as="targetPoint" />
          </mxGeometry>
        </mxCell>
        <mxCell id="IJctZO4Lj4U6wVQgpi5t-54" value="&lt;font face=&quot;Tahoma&quot;&gt;&lt;span style=&quot;font-size: 16px; line-height: 100%;&quot;&gt;hidden&lt;/span&gt;&lt;/font&gt;" style="rounded=0;whiteSpace=wrap;html=1;fillColor=#63FFC5;strokeColor=#0e8088;shadow=1;" parent="1" vertex="1">
          <mxGeometry x="-160" y="470" width="70" height="40" as="geometry" />
        </mxCell>
        <mxCell id="IJctZO4Lj4U6wVQgpi5t-74" value="&lt;font face=&quot;Tahoma&quot;&gt;&lt;span style=&quot;font-size: 16px; line-height: 100%;&quot;&gt;hidden&lt;/span&gt;&lt;/font&gt;" style="rounded=0;whiteSpace=wrap;html=1;fillColor=#63FFC5;strokeColor=#0e8088;shadow=1;" parent="1" vertex="1">
          <mxGeometry x="210" y="470" width="70" height="40" as="geometry" />
        </mxCell>
        <mxCell id="IJctZO4Lj4U6wVQgpi5t-97" value="" style="group" parent="1" vertex="1" connectable="0">
          <mxGeometry x="-450" y="480" width="280" height="240" as="geometry" />
        </mxCell>
        <mxCell id="IJctZO4Lj4U6wVQgpi5t-75" value="" style="rounded=1;whiteSpace=wrap;html=1;opacity=20;" parent="IJctZO4Lj4U6wVQgpi5t-97" vertex="1">
          <mxGeometry width="280" height="160" as="geometry" />
        </mxCell>
        <mxCell id="IJctZO4Lj4U6wVQgpi5t-77" style="edgeStyle=none;curved=1;rounded=0;orthogonalLoop=1;jettySize=auto;html=1;entryX=0.5;entryY=1;entryDx=0;entryDy=0;fontSize=12;startSize=8;endSize=8;opacity=20;" parent="IJctZO4Lj4U6wVQgpi5t-97" source="IJctZO4Lj4U6wVQgpi5t-78" target="IJctZO4Lj4U6wVQgpi5t-80" edge="1">
          <mxGeometry relative="1" as="geometry" />
        </mxCell>
        <mxCell id="IJctZO4Lj4U6wVQgpi5t-78" value="&lt;div style=&quot;line-height: 100%;&quot;&gt;&lt;font style=&quot;font-size: 16px;&quot;&gt;x&lt;sub&gt;t-1&lt;/sub&gt;&lt;/font&gt;&lt;/div&gt;" style="ellipse;whiteSpace=wrap;html=1;aspect=fixed;fillColor=#b0e3e6;strokeColor=#0e8088;opacity=20;" parent="IJctZO4Lj4U6wVQgpi5t-97" vertex="1">
          <mxGeometry x="37.5" y="200" width="40" height="40" as="geometry" />
        </mxCell>
        <mxCell id="IJctZO4Lj4U6wVQgpi5t-79" style="edgeStyle=orthogonalEdgeStyle;rounded=0;orthogonalLoop=1;jettySize=auto;html=1;exitX=1;exitY=0.5;exitDx=0;exitDy=0;entryX=0.5;entryY=1;entryDx=0;entryDy=0;fontSize=12;startSize=8;endSize=8;opacity=20;" parent="IJctZO4Lj4U6wVQgpi5t-97" source="IJctZO4Lj4U6wVQgpi5t-80" target="IJctZO4Lj4U6wVQgpi5t-87" edge="1">
          <mxGeometry relative="1" as="geometry" />
        </mxCell>
        <mxCell id="IJctZO4Lj4U6wVQgpi5t-80" value="" style="rounded=0;whiteSpace=wrap;html=1;fillColor=#fad7ac;strokeColor=#b46504;opacity=20;" parent="IJctZO4Lj4U6wVQgpi5t-97" vertex="1">
          <mxGeometry x="25" y="110" width="65" height="30" as="geometry" />
        </mxCell>
        <mxCell id="IJctZO4Lj4U6wVQgpi5t-81" style="edgeStyle=orthogonalEdgeStyle;rounded=0;orthogonalLoop=1;jettySize=auto;html=1;exitX=1;exitY=0.5;exitDx=0;exitDy=0;entryX=0;entryY=0.5;entryDx=0;entryDy=0;fontSize=12;startSize=8;endSize=8;opacity=20;" parent="IJctZO4Lj4U6wVQgpi5t-97" source="IJctZO4Lj4U6wVQgpi5t-82" target="IJctZO4Lj4U6wVQgpi5t-87" edge="1">
          <mxGeometry relative="1" as="geometry" />
        </mxCell>
        <mxCell id="IJctZO4Lj4U6wVQgpi5t-82" value="" style="rounded=0;whiteSpace=wrap;html=1;fillColor=#fad7ac;strokeColor=#b46504;opacity=20;" parent="IJctZO4Lj4U6wVQgpi5t-97" vertex="1">
          <mxGeometry x="25" y="20" width="65" height="30" as="geometry" />
        </mxCell>
        <mxCell id="IJctZO4Lj4U6wVQgpi5t-83" style="edgeStyle=none;curved=1;rounded=0;orthogonalLoop=1;jettySize=auto;html=1;entryX=0.5;entryY=0;entryDx=0;entryDy=0;fontSize=12;startSize=8;endSize=8;opacity=20;" parent="IJctZO4Lj4U6wVQgpi5t-97" source="IJctZO4Lj4U6wVQgpi5t-85" target="IJctZO4Lj4U6wVQgpi5t-90" edge="1">
          <mxGeometry relative="1" as="geometry" />
        </mxCell>
        <mxCell id="IJctZO4Lj4U6wVQgpi5t-85" value="" style="rounded=1;whiteSpace=wrap;html=1;fillColor=#fad9d5;strokeColor=#ae4132;gradientColor=none;arcSize=50;opacity=20;" parent="IJctZO4Lj4U6wVQgpi5t-97" vertex="1">
          <mxGeometry x="190" y="20" width="60" height="30" as="geometry" />
        </mxCell>
        <mxCell id="IJctZO4Lj4U6wVQgpi5t-86" style="edgeStyle=none;curved=1;rounded=0;orthogonalLoop=1;jettySize=auto;html=1;entryX=0;entryY=0.5;entryDx=0;entryDy=0;fontSize=12;startSize=8;endSize=8;opacity=20;" parent="IJctZO4Lj4U6wVQgpi5t-97" source="IJctZO4Lj4U6wVQgpi5t-87" target="IJctZO4Lj4U6wVQgpi5t-85" edge="1">
          <mxGeometry relative="1" as="geometry" />
        </mxCell>
        <mxCell id="IJctZO4Lj4U6wVQgpi5t-87" value="" style="ellipse;whiteSpace=wrap;html=1;aspect=fixed;fillColor=#fad9d5;strokeColor=#ae4132;opacity=20;" parent="IJctZO4Lj4U6wVQgpi5t-97" vertex="1">
          <mxGeometry x="130" y="25" width="20" height="20" as="geometry" />
        </mxCell>
        <mxCell id="IJctZO4Lj4U6wVQgpi5t-88" style="edgeStyle=none;curved=1;rounded=0;orthogonalLoop=1;jettySize=auto;html=1;exitX=0;exitY=0.5;exitDx=0;exitDy=0;fontSize=12;startSize=8;endSize=8;opacity=20;" parent="IJctZO4Lj4U6wVQgpi5t-97" source="IJctZO4Lj4U6wVQgpi5t-85" target="IJctZO4Lj4U6wVQgpi5t-85" edge="1">
          <mxGeometry relative="1" as="geometry" />
        </mxCell>
        <mxCell id="IJctZO4Lj4U6wVQgpi5t-89" style="edgeStyle=none;curved=1;rounded=0;orthogonalLoop=1;jettySize=auto;html=1;entryX=0.5;entryY=0;entryDx=0;entryDy=0;fontSize=12;startSize=8;endSize=8;opacity=20;" parent="IJctZO4Lj4U6wVQgpi5t-97" source="IJctZO4Lj4U6wVQgpi5t-90" target="IJctZO4Lj4U6wVQgpi5t-92" edge="1">
          <mxGeometry relative="1" as="geometry" />
        </mxCell>
        <mxCell id="IJctZO4Lj4U6wVQgpi5t-90" value="" style="rounded=0;whiteSpace=wrap;html=1;fillColor=#fad7ac;strokeColor=#b46504;opacity=20;" parent="IJctZO4Lj4U6wVQgpi5t-97" vertex="1">
          <mxGeometry x="187.5" y="70" width="65" height="30" as="geometry" />
        </mxCell>
        <mxCell id="IJctZO4Lj4U6wVQgpi5t-91" style="edgeStyle=none;curved=1;rounded=0;orthogonalLoop=1;jettySize=auto;html=1;entryX=0.5;entryY=0;entryDx=0;entryDy=0;fontSize=12;startSize=8;endSize=8;opacity=20;" parent="IJctZO4Lj4U6wVQgpi5t-97" source="IJctZO4Lj4U6wVQgpi5t-92" target="IJctZO4Lj4U6wVQgpi5t-93" edge="1">
          <mxGeometry relative="1" as="geometry" />
        </mxCell>
        <mxCell id="IJctZO4Lj4U6wVQgpi5t-92" value="" style="rounded=1;whiteSpace=wrap;html=1;fillColor=#fad9d5;strokeColor=#ae4132;arcSize=50;opacity=20;" parent="IJctZO4Lj4U6wVQgpi5t-97" vertex="1">
          <mxGeometry x="187.5" y="120" width="65" height="30" as="geometry" />
        </mxCell>
        <mxCell id="IJctZO4Lj4U6wVQgpi5t-93" value="&lt;div style=&quot;line-height: 100%;&quot;&gt;&lt;font style=&quot;font-size: 16px;&quot;&gt;h&lt;sub style=&quot;&quot;&gt;t-1&lt;/sub&gt;&lt;/font&gt;&lt;/div&gt;" style="ellipse;whiteSpace=wrap;html=1;aspect=fixed;fillColor=#d0cee2;strokeColor=#56517e;opacity=20;" parent="IJctZO4Lj4U6wVQgpi5t-97" vertex="1">
          <mxGeometry x="200" y="200" width="40" height="40" as="geometry" />
        </mxCell>
        <mxCell id="IJctZO4Lj4U6wVQgpi5t-98" value="" style="group" parent="1" vertex="1" connectable="0">
          <mxGeometry x="290" y="480" width="280" height="240" as="geometry" />
        </mxCell>
        <mxCell id="IJctZO4Lj4U6wVQgpi5t-99" value="" style="rounded=1;whiteSpace=wrap;html=1;opacity=20;" parent="IJctZO4Lj4U6wVQgpi5t-98" vertex="1">
          <mxGeometry width="280" height="160" as="geometry" />
        </mxCell>
        <mxCell id="IJctZO4Lj4U6wVQgpi5t-100" style="edgeStyle=none;curved=1;rounded=0;orthogonalLoop=1;jettySize=auto;html=1;entryX=0.5;entryY=1;entryDx=0;entryDy=0;fontSize=12;startSize=8;endSize=8;opacity=20;" parent="IJctZO4Lj4U6wVQgpi5t-98" source="IJctZO4Lj4U6wVQgpi5t-101" target="IJctZO4Lj4U6wVQgpi5t-103" edge="1">
          <mxGeometry relative="1" as="geometry" />
        </mxCell>
        <mxCell id="IJctZO4Lj4U6wVQgpi5t-101" value="&lt;div style=&quot;line-height: 100%;&quot;&gt;&lt;font style=&quot;font-size: 16px;&quot;&gt;x&lt;sub&gt;t+1&lt;/sub&gt;&lt;/font&gt;&lt;/div&gt;" style="ellipse;whiteSpace=wrap;html=1;aspect=fixed;fillColor=#b0e3e6;strokeColor=#0e8088;opacity=20;" parent="IJctZO4Lj4U6wVQgpi5t-98" vertex="1">
          <mxGeometry x="37.5" y="200" width="40" height="40" as="geometry" />
        </mxCell>
        <mxCell id="IJctZO4Lj4U6wVQgpi5t-102" style="edgeStyle=orthogonalEdgeStyle;rounded=0;orthogonalLoop=1;jettySize=auto;html=1;exitX=1;exitY=0.5;exitDx=0;exitDy=0;entryX=0.5;entryY=1;entryDx=0;entryDy=0;fontSize=12;startSize=8;endSize=8;opacity=20;" parent="IJctZO4Lj4U6wVQgpi5t-98" source="IJctZO4Lj4U6wVQgpi5t-103" target="IJctZO4Lj4U6wVQgpi5t-109" edge="1">
          <mxGeometry relative="1" as="geometry" />
        </mxCell>
        <mxCell id="IJctZO4Lj4U6wVQgpi5t-103" value="" style="rounded=0;whiteSpace=wrap;html=1;fillColor=#fad7ac;strokeColor=#b46504;opacity=20;" parent="IJctZO4Lj4U6wVQgpi5t-98" vertex="1">
          <mxGeometry x="25" y="110" width="65" height="30" as="geometry" />
        </mxCell>
        <mxCell id="IJctZO4Lj4U6wVQgpi5t-104" style="edgeStyle=orthogonalEdgeStyle;rounded=0;orthogonalLoop=1;jettySize=auto;html=1;exitX=1;exitY=0.5;exitDx=0;exitDy=0;entryX=0;entryY=0.5;entryDx=0;entryDy=0;fontSize=12;startSize=8;endSize=8;opacity=20;" parent="IJctZO4Lj4U6wVQgpi5t-98" source="IJctZO4Lj4U6wVQgpi5t-105" target="IJctZO4Lj4U6wVQgpi5t-109" edge="1">
          <mxGeometry relative="1" as="geometry" />
        </mxCell>
        <mxCell id="IJctZO4Lj4U6wVQgpi5t-105" value="" style="rounded=0;whiteSpace=wrap;html=1;fillColor=#fad7ac;strokeColor=#b46504;opacity=20;" parent="IJctZO4Lj4U6wVQgpi5t-98" vertex="1">
          <mxGeometry x="25" y="20" width="65" height="30" as="geometry" />
        </mxCell>
        <mxCell id="IJctZO4Lj4U6wVQgpi5t-106" style="edgeStyle=none;curved=1;rounded=0;orthogonalLoop=1;jettySize=auto;html=1;entryX=0.5;entryY=0;entryDx=0;entryDy=0;fontSize=12;startSize=8;endSize=8;opacity=20;" parent="IJctZO4Lj4U6wVQgpi5t-98" source="IJctZO4Lj4U6wVQgpi5t-107" target="IJctZO4Lj4U6wVQgpi5t-112" edge="1">
          <mxGeometry relative="1" as="geometry" />
        </mxCell>
        <mxCell id="IJctZO4Lj4U6wVQgpi5t-107" value="" style="rounded=1;whiteSpace=wrap;html=1;fillColor=#fad9d5;strokeColor=#ae4132;gradientColor=none;arcSize=50;opacity=20;" parent="IJctZO4Lj4U6wVQgpi5t-98" vertex="1">
          <mxGeometry x="190" y="20" width="60" height="30" as="geometry" />
        </mxCell>
        <mxCell id="IJctZO4Lj4U6wVQgpi5t-108" style="edgeStyle=none;curved=1;rounded=0;orthogonalLoop=1;jettySize=auto;html=1;entryX=0;entryY=0.5;entryDx=0;entryDy=0;fontSize=12;startSize=8;endSize=8;opacity=20;" parent="IJctZO4Lj4U6wVQgpi5t-98" source="IJctZO4Lj4U6wVQgpi5t-109" target="IJctZO4Lj4U6wVQgpi5t-107" edge="1">
          <mxGeometry relative="1" as="geometry" />
        </mxCell>
        <mxCell id="IJctZO4Lj4U6wVQgpi5t-109" value="" style="ellipse;whiteSpace=wrap;html=1;aspect=fixed;fillColor=#fad9d5;strokeColor=#ae4132;opacity=20;" parent="IJctZO4Lj4U6wVQgpi5t-98" vertex="1">
          <mxGeometry x="130" y="25" width="20" height="20" as="geometry" />
        </mxCell>
        <mxCell id="IJctZO4Lj4U6wVQgpi5t-110" style="edgeStyle=none;curved=1;rounded=0;orthogonalLoop=1;jettySize=auto;html=1;exitX=0;exitY=0.5;exitDx=0;exitDy=0;fontSize=12;startSize=8;endSize=8;opacity=20;" parent="IJctZO4Lj4U6wVQgpi5t-98" source="IJctZO4Lj4U6wVQgpi5t-107" target="IJctZO4Lj4U6wVQgpi5t-107" edge="1">
          <mxGeometry relative="1" as="geometry" />
        </mxCell>
        <mxCell id="IJctZO4Lj4U6wVQgpi5t-111" style="edgeStyle=none;curved=1;rounded=0;orthogonalLoop=1;jettySize=auto;html=1;entryX=0.5;entryY=0;entryDx=0;entryDy=0;fontSize=12;startSize=8;endSize=8;opacity=20;" parent="IJctZO4Lj4U6wVQgpi5t-98" source="IJctZO4Lj4U6wVQgpi5t-112" target="IJctZO4Lj4U6wVQgpi5t-114" edge="1">
          <mxGeometry relative="1" as="geometry" />
        </mxCell>
        <mxCell id="IJctZO4Lj4U6wVQgpi5t-112" value="" style="rounded=0;whiteSpace=wrap;html=1;fillColor=#fad7ac;strokeColor=#b46504;opacity=20;" parent="IJctZO4Lj4U6wVQgpi5t-98" vertex="1">
          <mxGeometry x="187.5" y="70" width="65" height="30" as="geometry" />
        </mxCell>
        <mxCell id="IJctZO4Lj4U6wVQgpi5t-113" style="edgeStyle=none;curved=1;rounded=0;orthogonalLoop=1;jettySize=auto;html=1;entryX=0.5;entryY=0;entryDx=0;entryDy=0;fontSize=12;startSize=8;endSize=8;opacity=20;" parent="IJctZO4Lj4U6wVQgpi5t-98" source="IJctZO4Lj4U6wVQgpi5t-114" target="IJctZO4Lj4U6wVQgpi5t-115" edge="1">
          <mxGeometry relative="1" as="geometry" />
        </mxCell>
        <mxCell id="IJctZO4Lj4U6wVQgpi5t-114" value="" style="rounded=1;whiteSpace=wrap;html=1;fillColor=#fad9d5;strokeColor=#ae4132;arcSize=50;opacity=20;" parent="IJctZO4Lj4U6wVQgpi5t-98" vertex="1">
          <mxGeometry x="187.5" y="120" width="65" height="30" as="geometry" />
        </mxCell>
        <mxCell id="IJctZO4Lj4U6wVQgpi5t-115" value="&lt;div style=&quot;line-height: 100%;&quot;&gt;&lt;font style=&quot;font-size: 16px;&quot;&gt;h&lt;sub&gt;t+1&lt;/sub&gt;&lt;/font&gt;&lt;/div&gt;" style="ellipse;whiteSpace=wrap;html=1;aspect=fixed;fillColor=#d0cee2;strokeColor=#56517e;opacity=20;" parent="IJctZO4Lj4U6wVQgpi5t-98" vertex="1">
          <mxGeometry x="200" y="200" width="40" height="40" as="geometry" />
        </mxCell>
        <mxCell id="IJctZO4Lj4U6wVQgpi5t-117" value="input at time t" style="text;html=1;align=center;verticalAlign=middle;whiteSpace=wrap;rounded=0;" parent="1" vertex="1">
          <mxGeometry x="-182.5" y="860" width="80" height="30" as="geometry" />
        </mxCell>
        <mxCell id="IJctZO4Lj4U6wVQgpi5t-119" value="output at time t" style="text;html=1;align=center;verticalAlign=middle;whiteSpace=wrap;rounded=0;" parent="1" vertex="1">
          <mxGeometry x="-67.5" y="860" width="90" height="30" as="geometry" />
        </mxCell>
        <mxCell id="IJctZO4Lj4U6wVQgpi5t-120" value="" style="rounded=0;whiteSpace=wrap;html=1;fillColor=#fad7ac;strokeColor=#b46504;" parent="1" vertex="1">
          <mxGeometry x="78.5" y="815" width="65" height="30" as="geometry" />
        </mxCell>
        <mxCell id="IJctZO4Lj4U6wVQgpi5t-121" value="&lt;div style=&quot;line-height: 100%;&quot;&gt;x&lt;span&gt;&lt;sub&gt;t&lt;/sub&gt;&lt;/span&gt;&lt;/div&gt;" style="ellipse;whiteSpace=wrap;html=1;aspect=fixed;fillColor=#b0e3e6;strokeColor=#0e8088;fontSize=16;" parent="1" vertex="1">
          <mxGeometry x="-162.5" y="810" width="40" height="40" as="geometry" />
        </mxCell>
        <mxCell id="IJctZO4Lj4U6wVQgpi5t-122" value="&lt;div style=&quot;line-height: 100%;&quot;&gt;&lt;font style=&quot;font-size: 16px;&quot;&gt;h&lt;sub&gt;t&lt;/sub&gt;&lt;/font&gt;&lt;/div&gt;" style="ellipse;whiteSpace=wrap;html=1;aspect=fixed;fillColor=#d0cee2;strokeColor=#56517e;" parent="1" vertex="1">
          <mxGeometry x="-42.5" y="810" width="40" height="40" as="geometry" />
        </mxCell>
        <mxCell id="IJctZO4Lj4U6wVQgpi5t-123" value="" style="rounded=1;whiteSpace=wrap;html=1;fillColor=#fad9d5;strokeColor=#ae4132;gradientColor=none;arcSize=50;" parent="1" vertex="1">
          <mxGeometry x="227.5" y="815" width="60" height="30" as="geometry" />
        </mxCell>
        <mxCell id="IJctZO4Lj4U6wVQgpi5t-124" value="pointwise operation" style="text;html=1;align=center;verticalAlign=middle;whiteSpace=wrap;rounded=0;" parent="1" vertex="1">
          <mxGeometry x="212.5" y="860" width="90" height="30" as="geometry" />
        </mxCell>
        <mxCell id="IJctZO4Lj4U6wVQgpi5t-125" value="neural network layer" style="text;html=1;align=center;verticalAlign=middle;whiteSpace=wrap;rounded=0;" parent="1" vertex="1">
          <mxGeometry x="66" y="860" width="90" height="30" as="geometry" />
        </mxCell>
        <mxCell id="IJctZO4Lj4U6wVQgpi5t-126" value="" style="rounded=1;whiteSpace=wrap;html=1;" parent="1" vertex="1">
          <mxGeometry x="-100" y="1040" width="280" height="160" as="geometry" />
        </mxCell>
        <mxCell id="IJctZO4Lj4U6wVQgpi5t-127" value="&lt;font face=&quot;Tahoma&quot;&gt;RNN Node&lt;/font&gt;" style="text;html=1;align=center;verticalAlign=middle;resizable=0;points=[];autosize=1;strokeColor=none;fillColor=none;fontSize=16;" parent="1" vertex="1">
          <mxGeometry x="-10" y="1000" width="100" height="30" as="geometry" />
        </mxCell>
        <mxCell id="IJctZO4Lj4U6wVQgpi5t-128" style="edgeStyle=none;curved=1;rounded=0;orthogonalLoop=1;jettySize=auto;html=1;entryX=0.5;entryY=1;entryDx=0;entryDy=0;fontSize=12;startSize=8;endSize=8;" parent="1" source="IJctZO4Lj4U6wVQgpi5t-129" target="IJctZO4Lj4U6wVQgpi5t-138" edge="1">
          <mxGeometry relative="1" as="geometry">
            <mxPoint x="-42.5" y="1180" as="targetPoint" />
          </mxGeometry>
        </mxCell>
        <mxCell id="IJctZO4Lj4U6wVQgpi5t-129" value="&lt;div style=&quot;line-height: 100%;&quot;&gt;x&lt;span&gt;&lt;sub&gt;t&lt;/sub&gt;&lt;/span&gt;&lt;/div&gt;" style="ellipse;whiteSpace=wrap;html=1;aspect=fixed;fillColor=#b0e3e6;strokeColor=#0e8088;fontSize=16;shadow=1;" parent="1" vertex="1">
          <mxGeometry x="-80" y="1240" width="40" height="40" as="geometry" />
        </mxCell>
        <mxCell id="IJctZO4Lj4U6wVQgpi5t-135" style="edgeStyle=none;curved=1;rounded=0;orthogonalLoop=1;jettySize=auto;html=1;fontSize=12;startSize=8;endSize=8;entryX=0;entryY=0.5;entryDx=0;entryDy=0;exitX=1;exitY=0.5;exitDx=0;exitDy=0;" parent="1" source="IJctZO4Lj4U6wVQgpi5t-141" edge="1">
          <mxGeometry relative="1" as="geometry">
            <mxPoint x="295" y="1075" as="targetPoint" />
            <mxPoint x="150" y="1075" as="sourcePoint" />
          </mxGeometry>
        </mxCell>
        <mxCell id="IJctZO4Lj4U6wVQgpi5t-184" style="edgeStyle=none;curved=1;rounded=0;orthogonalLoop=1;jettySize=auto;html=1;exitX=1;exitY=0.5;exitDx=0;exitDy=0;entryX=0;entryY=0.5;entryDx=0;entryDy=0;fontSize=12;startSize=8;endSize=8;" parent="1" source="IJctZO4Lj4U6wVQgpi5t-138" target="IJctZO4Lj4U6wVQgpi5t-141" edge="1">
          <mxGeometry relative="1" as="geometry" />
        </mxCell>
        <mxCell id="IJctZO4Lj4U6wVQgpi5t-138" value="&lt;font face=&quot;Tahoma&quot;&gt;&lt;b style=&quot;line-height: 100%;&quot;&gt;+&lt;/b&gt;&lt;/font&gt;" style="ellipse;whiteSpace=wrap;html=1;aspect=fixed;fillColor=#fad9d5;strokeColor=#ae4132;" parent="1" vertex="1">
          <mxGeometry x="-70" y="1065" width="20" height="20" as="geometry" />
        </mxCell>
        <mxCell id="IJctZO4Lj4U6wVQgpi5t-139" style="edgeStyle=none;curved=1;rounded=0;orthogonalLoop=1;jettySize=auto;html=1;exitX=0;exitY=0.5;exitDx=0;exitDy=0;fontSize=12;startSize=8;endSize=8;" parent="1" edge="1">
          <mxGeometry relative="1" as="geometry">
            <mxPoint x="90" y="1075" as="sourcePoint" />
            <mxPoint x="90" y="1075" as="targetPoint" />
          </mxGeometry>
        </mxCell>
        <mxCell id="IJctZO4Lj4U6wVQgpi5t-186" style="edgeStyle=none;curved=1;rounded=0;orthogonalLoop=1;jettySize=auto;html=1;exitX=0.5;exitY=1;exitDx=0;exitDy=0;entryX=0.5;entryY=0;entryDx=0;entryDy=0;fontSize=12;startSize=8;endSize=8;" parent="1" source="IJctZO4Lj4U6wVQgpi5t-141" target="IJctZO4Lj4U6wVQgpi5t-185" edge="1">
          <mxGeometry relative="1" as="geometry" />
        </mxCell>
        <mxCell id="IJctZO4Lj4U6wVQgpi5t-141" value="&lt;font face=&quot;Tahoma&quot; style=&quot;font-size: 16px; line-height: 100%;&quot;&gt;linear&lt;/font&gt;" style="rounded=0;whiteSpace=wrap;html=1;fillColor=#fad7ac;strokeColor=#b46504;" parent="1" vertex="1">
          <mxGeometry x="87.5" y="1060" width="65" height="30" as="geometry" />
        </mxCell>
        <mxCell id="IJctZO4Lj4U6wVQgpi5t-142" style="edgeStyle=none;curved=1;rounded=0;orthogonalLoop=1;jettySize=auto;html=1;entryX=0.5;entryY=0;entryDx=0;entryDy=0;fontSize=12;startSize=8;endSize=8;" parent="1" source="IJctZO4Lj4U6wVQgpi5t-143" target="IJctZO4Lj4U6wVQgpi5t-144" edge="1">
          <mxGeometry relative="1" as="geometry" />
        </mxCell>
        <mxCell id="IJctZO4Lj4U6wVQgpi5t-143" value="&lt;font face=&quot;Tahoma&quot; style=&quot;font-size: 16px; line-height: 100%;&quot;&gt;softmax&lt;/font&gt;" style="rounded=1;whiteSpace=wrap;html=1;fillColor=#fad9d5;strokeColor=#ae4132;arcSize=50;" parent="1" vertex="1">
          <mxGeometry x="87.5" y="1160" width="65" height="30" as="geometry" />
        </mxCell>
        <mxCell id="IJctZO4Lj4U6wVQgpi5t-144" value="&lt;div style=&quot;line-height: 100%;&quot;&gt;&lt;font style=&quot;font-size: 16px;&quot;&gt;h&lt;sub&gt;t&lt;/sub&gt;&lt;/font&gt;&lt;/div&gt;" style="ellipse;whiteSpace=wrap;html=1;aspect=fixed;fillColor=#d0cee2;strokeColor=#56517e;shadow=1;" parent="1" vertex="1">
          <mxGeometry x="100" y="1240" width="40" height="40" as="geometry" />
        </mxCell>
        <mxCell id="IJctZO4Lj4U6wVQgpi5t-145" style="edgeStyle=none;curved=1;rounded=0;orthogonalLoop=1;jettySize=auto;html=1;exitX=1;exitY=0.5;exitDx=0;exitDy=0;fontSize=12;startSize=8;endSize=8;entryX=0;entryY=0.5;entryDx=0;entryDy=0;" parent="1" target="IJctZO4Lj4U6wVQgpi5t-138" edge="1">
          <mxGeometry relative="1" as="geometry">
            <mxPoint x="-220" y="1075" as="sourcePoint" />
            <mxPoint x="-75" y="1075" as="targetPoint" />
          </mxGeometry>
        </mxCell>
        <mxCell id="IJctZO4Lj4U6wVQgpi5t-146" value="&lt;font face=&quot;Tahoma&quot;&gt;&lt;span style=&quot;font-size: 16px; line-height: 100%;&quot;&gt;hidden&lt;/span&gt;&lt;/font&gt;" style="rounded=0;whiteSpace=wrap;html=1;fillColor=#63FFC5;strokeColor=#0e8088;shadow=1;" parent="1" vertex="1">
          <mxGeometry x="-290" y="1055" width="70" height="40" as="geometry" />
        </mxCell>
        <mxCell id="IJctZO4Lj4U6wVQgpi5t-147" value="&lt;font face=&quot;Tahoma&quot;&gt;&lt;span style=&quot;font-size: 16px; line-height: 100%;&quot;&gt;hidden&lt;/span&gt;&lt;/font&gt;" style="rounded=0;whiteSpace=wrap;html=1;fillColor=#63FFC5;strokeColor=#0e8088;shadow=1;" parent="1" vertex="1">
          <mxGeometry x="300" y="1055" width="70" height="40" as="geometry" />
        </mxCell>
        <mxCell id="IJctZO4Lj4U6wVQgpi5t-187" style="edgeStyle=none;curved=1;rounded=0;orthogonalLoop=1;jettySize=auto;html=1;entryX=0.5;entryY=0;entryDx=0;entryDy=0;fontSize=12;startSize=8;endSize=8;" parent="1" source="IJctZO4Lj4U6wVQgpi5t-185" target="IJctZO4Lj4U6wVQgpi5t-143" edge="1">
          <mxGeometry relative="1" as="geometry" />
        </mxCell>
        <mxCell id="IJctZO4Lj4U6wVQgpi5t-185" value="&lt;font face=&quot;Tahoma&quot; style=&quot;font-size: 16px; line-height: 100%;&quot;&gt;linear&lt;/font&gt;" style="rounded=0;whiteSpace=wrap;html=1;fillColor=#fad7ac;strokeColor=#b46504;" parent="1" vertex="1">
          <mxGeometry x="87.5" y="1110" width="65" height="30" as="geometry" />
        </mxCell>
        <mxCell id="gDRjD2k4WUJ-grIZElaN-1" value="" style="rounded=1;whiteSpace=wrap;html=1;" vertex="1" parent="1">
          <mxGeometry x="-86.25" y="1590" width="280" height="160" as="geometry" />
        </mxCell>
        <mxCell id="gDRjD2k4WUJ-grIZElaN-2" value="&lt;font face=&quot;Tahoma&quot;&gt;RNN Node&lt;/font&gt;" style="text;html=1;align=center;verticalAlign=middle;resizable=0;points=[];autosize=1;strokeColor=none;fillColor=none;fontSize=16;" vertex="1" parent="1">
          <mxGeometry x="3.75" y="1550" width="100" height="30" as="geometry" />
        </mxCell>
        <mxCell id="gDRjD2k4WUJ-grIZElaN-3" style="edgeStyle=none;curved=1;rounded=0;orthogonalLoop=1;jettySize=auto;html=1;entryX=0.5;entryY=1;entryDx=0;entryDy=0;fontSize=12;startSize=8;endSize=8;" edge="1" parent="1" source="gDRjD2k4WUJ-grIZElaN-4" target="gDRjD2k4WUJ-grIZElaN-70">
          <mxGeometry relative="1" as="geometry">
            <mxPoint x="-28.75" y="1730" as="targetPoint" />
          </mxGeometry>
        </mxCell>
        <mxCell id="gDRjD2k4WUJ-grIZElaN-4" value="&lt;div style=&quot;line-height: 100%;&quot;&gt;x&lt;span&gt;&lt;sub&gt;t&lt;/sub&gt;&lt;/span&gt;&lt;/div&gt;" style="ellipse;whiteSpace=wrap;html=1;aspect=fixed;fillColor=#b0e3e6;strokeColor=#0e8088;fontSize=16;shadow=1;" vertex="1" parent="1">
          <mxGeometry x="-71.25" y="1790" width="40" height="40" as="geometry" />
        </mxCell>
        <mxCell id="gDRjD2k4WUJ-grIZElaN-14" style="edgeStyle=none;curved=1;rounded=0;orthogonalLoop=1;jettySize=auto;html=1;exitX=0;exitY=0.5;exitDx=0;exitDy=0;fontSize=12;startSize=8;endSize=8;" edge="1" parent="1">
          <mxGeometry relative="1" as="geometry">
            <mxPoint x="103.75" y="1625" as="sourcePoint" />
            <mxPoint x="103.75" y="1625" as="targetPoint" />
          </mxGeometry>
        </mxCell>
        <mxCell id="gDRjD2k4WUJ-grIZElaN-17" style="edgeStyle=none;curved=1;rounded=0;orthogonalLoop=1;jettySize=auto;html=1;entryX=0.5;entryY=0;entryDx=0;entryDy=0;fontSize=12;startSize=8;endSize=8;" edge="1" parent="1" source="gDRjD2k4WUJ-grIZElaN-18" target="gDRjD2k4WUJ-grIZElaN-19">
          <mxGeometry relative="1" as="geometry" />
        </mxCell>
        <mxCell id="gDRjD2k4WUJ-grIZElaN-18" value="&lt;font face=&quot;Tahoma&quot; style=&quot;font-size: 16px; line-height: 100%;&quot;&gt;softmax&lt;/font&gt;" style="rounded=1;whiteSpace=wrap;html=1;fillColor=#fad9d5;strokeColor=#ae4132;arcSize=50;" vertex="1" parent="1">
          <mxGeometry x="118.75" y="1710" width="65" height="30" as="geometry" />
        </mxCell>
        <mxCell id="gDRjD2k4WUJ-grIZElaN-19" value="&lt;div style=&quot;line-height: 100%;&quot;&gt;&lt;font style=&quot;font-size: 16px;&quot;&gt;h&lt;sub&gt;t&lt;/sub&gt;&lt;/font&gt;&lt;/div&gt;" style="ellipse;whiteSpace=wrap;html=1;aspect=fixed;fillColor=#d0cee2;strokeColor=#56517e;shadow=1;" vertex="1" parent="1">
          <mxGeometry x="131.25" y="1790" width="40" height="40" as="geometry" />
        </mxCell>
        <mxCell id="gDRjD2k4WUJ-grIZElaN-21" value="&lt;font face=&quot;Tahoma&quot;&gt;&lt;span style=&quot;font-size: 16px; line-height: 100%;&quot;&gt;hidden&lt;/span&gt;&lt;/font&gt;" style="rounded=0;whiteSpace=wrap;html=1;fillColor=#63FFC5;strokeColor=#0e8088;shadow=1;" vertex="1" parent="1">
          <mxGeometry x="-166.25" y="1580" width="70" height="40" as="geometry" />
        </mxCell>
        <mxCell id="gDRjD2k4WUJ-grIZElaN-22" value="&lt;font face=&quot;Tahoma&quot;&gt;&lt;span style=&quot;font-size: 16px; line-height: 100%;&quot;&gt;hidden&lt;/span&gt;&lt;/font&gt;" style="rounded=0;whiteSpace=wrap;html=1;fillColor=#63FFC5;strokeColor=#0e8088;shadow=1;" vertex="1" parent="1">
          <mxGeometry x="203.75" y="1580" width="70" height="40" as="geometry" />
        </mxCell>
        <mxCell id="gDRjD2k4WUJ-grIZElaN-59" value="input at time t" style="text;html=1;align=center;verticalAlign=middle;whiteSpace=wrap;rounded=0;" vertex="1" parent="1">
          <mxGeometry x="-172.5" y="1930" width="80" height="30" as="geometry" />
        </mxCell>
        <mxCell id="gDRjD2k4WUJ-grIZElaN-60" value="output at time t" style="text;html=1;align=center;verticalAlign=middle;whiteSpace=wrap;rounded=0;" vertex="1" parent="1">
          <mxGeometry x="-57.5" y="1930" width="90" height="30" as="geometry" />
        </mxCell>
        <mxCell id="gDRjD2k4WUJ-grIZElaN-61" value="" style="rounded=0;whiteSpace=wrap;html=1;fillColor=#fad7ac;strokeColor=#b46504;" vertex="1" parent="1">
          <mxGeometry x="88.5" y="1885" width="65" height="30" as="geometry" />
        </mxCell>
        <mxCell id="gDRjD2k4WUJ-grIZElaN-62" value="&lt;div style=&quot;line-height: 100%;&quot;&gt;x&lt;span&gt;&lt;sub&gt;t&lt;/sub&gt;&lt;/span&gt;&lt;/div&gt;" style="ellipse;whiteSpace=wrap;html=1;aspect=fixed;fillColor=#b0e3e6;strokeColor=#0e8088;fontSize=16;" vertex="1" parent="1">
          <mxGeometry x="-152.5" y="1880" width="40" height="40" as="geometry" />
        </mxCell>
        <mxCell id="gDRjD2k4WUJ-grIZElaN-63" value="&lt;div style=&quot;line-height: 100%;&quot;&gt;&lt;font style=&quot;font-size: 16px;&quot;&gt;h&lt;sub&gt;t&lt;/sub&gt;&lt;/font&gt;&lt;/div&gt;" style="ellipse;whiteSpace=wrap;html=1;aspect=fixed;fillColor=#d0cee2;strokeColor=#56517e;" vertex="1" parent="1">
          <mxGeometry x="-32.5" y="1880" width="40" height="40" as="geometry" />
        </mxCell>
        <mxCell id="gDRjD2k4WUJ-grIZElaN-64" value="" style="rounded=1;whiteSpace=wrap;html=1;fillColor=#fad9d5;strokeColor=#ae4132;gradientColor=none;arcSize=50;" vertex="1" parent="1">
          <mxGeometry x="237.5" y="1885" width="60" height="30" as="geometry" />
        </mxCell>
        <mxCell id="gDRjD2k4WUJ-grIZElaN-65" value="operation" style="text;html=1;align=center;verticalAlign=middle;whiteSpace=wrap;rounded=0;" vertex="1" parent="1">
          <mxGeometry x="222.5" y="1930" width="90" height="30" as="geometry" />
        </mxCell>
        <mxCell id="gDRjD2k4WUJ-grIZElaN-66" value="neural network layer" style="text;html=1;align=center;verticalAlign=middle;whiteSpace=wrap;rounded=0;" vertex="1" parent="1">
          <mxGeometry x="76" y="1930" width="90" height="30" as="geometry" />
        </mxCell>
        <mxCell id="gDRjD2k4WUJ-grIZElaN-67" value="&lt;font face=&quot;Tahoma&quot;&gt;&lt;span style=&quot;font-size: 16px; line-height: 100%;&quot;&gt;category&lt;/span&gt;&lt;/font&gt;" style="rounded=0;whiteSpace=wrap;html=1;fillColor=#fff2cc;strokeColor=#d6b656;shadow=1;" vertex="1" parent="1">
          <mxGeometry x="-86.25" y="1530" width="70" height="40" as="geometry" />
        </mxCell>
        <mxCell id="gDRjD2k4WUJ-grIZElaN-69" style="edgeStyle=none;curved=1;rounded=0;orthogonalLoop=1;jettySize=auto;html=1;exitX=0.5;exitY=1;exitDx=0;exitDy=0;fontSize=12;startSize=8;endSize=8;entryX=0.5;entryY=0;entryDx=0;entryDy=0;" edge="1" parent="1" source="gDRjD2k4WUJ-grIZElaN-67" target="gDRjD2k4WUJ-grIZElaN-70">
          <mxGeometry relative="1" as="geometry">
            <mxPoint x="-196.25" y="1635" as="sourcePoint" />
            <mxPoint x="-51.25" y="1570" as="targetPoint" />
          </mxGeometry>
        </mxCell>
        <mxCell id="gDRjD2k4WUJ-grIZElaN-72" style="edgeStyle=orthogonalEdgeStyle;rounded=0;orthogonalLoop=1;jettySize=auto;html=1;exitX=1;exitY=0.5;exitDx=0;exitDy=0;entryX=0;entryY=0.5;entryDx=0;entryDy=0;" edge="1" parent="1" source="gDRjD2k4WUJ-grIZElaN-70" target="gDRjD2k4WUJ-grIZElaN-71">
          <mxGeometry relative="1" as="geometry" />
        </mxCell>
        <mxCell id="gDRjD2k4WUJ-grIZElaN-95" style="edgeStyle=orthogonalEdgeStyle;rounded=0;orthogonalLoop=1;jettySize=auto;html=1;entryX=0;entryY=0.5;entryDx=0;entryDy=0;" edge="1" parent="1" source="gDRjD2k4WUJ-grIZElaN-70" target="gDRjD2k4WUJ-grIZElaN-73">
          <mxGeometry relative="1" as="geometry">
            <Array as="points">
              <mxPoint x="-36.25" y="1625" />
              <mxPoint x="-36.25" y="1665" />
            </Array>
          </mxGeometry>
        </mxCell>
        <mxCell id="gDRjD2k4WUJ-grIZElaN-70" value="&lt;font face=&quot;Tahoma&quot;&gt;&lt;b style=&quot;line-height: 100%;&quot;&gt;+&lt;/b&gt;&lt;/font&gt;" style="ellipse;whiteSpace=wrap;html=1;aspect=fixed;fillColor=#fad9d5;strokeColor=#ae4132;" vertex="1" parent="1">
          <mxGeometry x="-61.25" y="1615" width="20" height="20" as="geometry" />
        </mxCell>
        <mxCell id="gDRjD2k4WUJ-grIZElaN-98" style="edgeStyle=orthogonalEdgeStyle;rounded=0;orthogonalLoop=1;jettySize=auto;html=1;entryX=0.5;entryY=0;entryDx=0;entryDy=0;" edge="1" parent="1" source="gDRjD2k4WUJ-grIZElaN-71" target="gDRjD2k4WUJ-grIZElaN-96">
          <mxGeometry relative="1" as="geometry" />
        </mxCell>
        <mxCell id="gDRjD2k4WUJ-grIZElaN-71" value="&lt;font face=&quot;Tahoma&quot; style=&quot;font-size: 16px; line-height: 100%;&quot;&gt;linear&lt;/font&gt;" style="rounded=0;whiteSpace=wrap;html=1;fillColor=#fad7ac;strokeColor=#b46504;" vertex="1" parent="1">
          <mxGeometry x="-18.75" y="1610" width="65" height="30" as="geometry" />
        </mxCell>
        <mxCell id="gDRjD2k4WUJ-grIZElaN-99" style="edgeStyle=orthogonalEdgeStyle;rounded=0;orthogonalLoop=1;jettySize=auto;html=1;exitX=1;exitY=0.5;exitDx=0;exitDy=0;entryX=0;entryY=0.5;entryDx=0;entryDy=0;" edge="1" parent="1" source="gDRjD2k4WUJ-grIZElaN-73" target="gDRjD2k4WUJ-grIZElaN-96">
          <mxGeometry relative="1" as="geometry" />
        </mxCell>
        <mxCell id="gDRjD2k4WUJ-grIZElaN-73" value="&lt;font face=&quot;Tahoma&quot; style=&quot;font-size: 16px; line-height: 100%;&quot;&gt;linear&lt;/font&gt;" style="rounded=0;whiteSpace=wrap;html=1;fillColor=#fad7ac;strokeColor=#b46504;" vertex="1" parent="1">
          <mxGeometry x="-18.75" y="1650" width="65" height="30" as="geometry" />
        </mxCell>
        <mxCell id="gDRjD2k4WUJ-grIZElaN-89" style="edgeStyle=orthogonalEdgeStyle;rounded=0;orthogonalLoop=1;jettySize=auto;html=1;exitX=0.5;exitY=1;exitDx=0;exitDy=0;entryX=0.5;entryY=0;entryDx=0;entryDy=0;" edge="1" parent="1" source="gDRjD2k4WUJ-grIZElaN-77" target="gDRjD2k4WUJ-grIZElaN-18">
          <mxGeometry relative="1" as="geometry" />
        </mxCell>
        <mxCell id="gDRjD2k4WUJ-grIZElaN-101" value="" style="rounded=1;whiteSpace=wrap;html=1;opacity=20;" vertex="1" parent="1">
          <mxGeometry x="286.25" y="1590" width="280" height="160" as="geometry" />
        </mxCell>
        <mxCell id="gDRjD2k4WUJ-grIZElaN-77" value="&lt;font face=&quot;Tahoma&quot; style=&quot;font-size: 16px; line-height: 100%;&quot;&gt;dropout&lt;/font&gt;" style="rounded=1;whiteSpace=wrap;html=1;fillColor=#fad9d5;strokeColor=#ae4132;arcSize=50;" vertex="1" parent="1">
          <mxGeometry x="118.75" y="1650" width="65" height="30" as="geometry" />
        </mxCell>
        <mxCell id="gDRjD2k4WUJ-grIZElaN-100" style="edgeStyle=orthogonalEdgeStyle;rounded=0;orthogonalLoop=1;jettySize=auto;html=1;entryX=0;entryY=0.5;entryDx=0;entryDy=0;" edge="1" parent="1" source="gDRjD2k4WUJ-grIZElaN-96" target="gDRjD2k4WUJ-grIZElaN-77">
          <mxGeometry relative="1" as="geometry" />
        </mxCell>
        <mxCell id="gDRjD2k4WUJ-grIZElaN-96" value="&lt;font face=&quot;Tahoma&quot;&gt;&lt;b style=&quot;line-height: 100%;&quot;&gt;+&lt;/b&gt;&lt;/font&gt;" style="ellipse;whiteSpace=wrap;html=1;aspect=fixed;fillColor=#fad9d5;strokeColor=#ae4132;" vertex="1" parent="1">
          <mxGeometry x="73.75" y="1655" width="20" height="20" as="geometry" />
        </mxCell>
        <mxCell id="gDRjD2k4WUJ-grIZElaN-103" style="edgeStyle=none;curved=1;rounded=0;orthogonalLoop=1;jettySize=auto;html=1;entryX=0.5;entryY=1;entryDx=0;entryDy=0;fontSize=12;startSize=8;endSize=8;opacity=20;" edge="1" parent="1" source="gDRjD2k4WUJ-grIZElaN-104" target="gDRjD2k4WUJ-grIZElaN-116">
          <mxGeometry relative="1" as="geometry">
            <mxPoint x="343.75" y="1730" as="targetPoint" />
          </mxGeometry>
        </mxCell>
        <mxCell id="gDRjD2k4WUJ-grIZElaN-104" value="&lt;div style=&quot;line-height: 100%;&quot;&gt;x&lt;sub&gt;t+1&lt;/sub&gt;&lt;/div&gt;" style="ellipse;whiteSpace=wrap;html=1;aspect=fixed;fillColor=#b0e3e6;strokeColor=#0e8088;fontSize=16;shadow=1;opacity=20;" vertex="1" parent="1">
          <mxGeometry x="301.25" y="1790" width="40" height="40" as="geometry" />
        </mxCell>
        <mxCell id="gDRjD2k4WUJ-grIZElaN-105" style="edgeStyle=none;curved=1;rounded=0;orthogonalLoop=1;jettySize=auto;html=1;exitX=0;exitY=0.5;exitDx=0;exitDy=0;fontSize=12;startSize=8;endSize=8;opacity=20;" edge="1" parent="1">
          <mxGeometry relative="1" as="geometry">
            <mxPoint x="476.25" y="1625" as="sourcePoint" />
            <mxPoint x="476.25" y="1625" as="targetPoint" />
          </mxGeometry>
        </mxCell>
        <mxCell id="gDRjD2k4WUJ-grIZElaN-106" style="edgeStyle=none;curved=1;rounded=0;orthogonalLoop=1;jettySize=auto;html=1;entryX=0.5;entryY=0;entryDx=0;entryDy=0;fontSize=12;startSize=8;endSize=8;opacity=20;" edge="1" parent="1" source="gDRjD2k4WUJ-grIZElaN-107" target="gDRjD2k4WUJ-grIZElaN-108">
          <mxGeometry relative="1" as="geometry" />
        </mxCell>
        <mxCell id="gDRjD2k4WUJ-grIZElaN-107" value="" style="rounded=1;whiteSpace=wrap;html=1;fillColor=#fad9d5;strokeColor=#ae4132;arcSize=50;opacity=20;" vertex="1" parent="1">
          <mxGeometry x="491.25" y="1710" width="65" height="30" as="geometry" />
        </mxCell>
        <mxCell id="gDRjD2k4WUJ-grIZElaN-108" value="&lt;div style=&quot;line-height: 100%;&quot;&gt;&lt;span style=&quot;font-size: 16px;&quot;&gt;h&lt;/span&gt;&lt;sub&gt;t+1&lt;/sub&gt;&lt;/div&gt;" style="ellipse;whiteSpace=wrap;html=1;aspect=fixed;fillColor=#d0cee2;strokeColor=#56517e;shadow=1;opacity=20;" vertex="1" parent="1">
          <mxGeometry x="503.75" y="1790" width="40" height="40" as="geometry" />
        </mxCell>
        <mxCell id="gDRjD2k4WUJ-grIZElaN-111" value="" style="rounded=0;whiteSpace=wrap;html=1;fillColor=#63FFC5;strokeColor=#0e8088;shadow=1;opacity=20;" vertex="1" parent="1">
          <mxGeometry x="576.25" y="1580" width="70" height="40" as="geometry" />
        </mxCell>
        <mxCell id="gDRjD2k4WUJ-grIZElaN-112" value="" style="rounded=0;whiteSpace=wrap;html=1;fillColor=#fff2cc;strokeColor=#d6b656;shadow=1;opacity=20;" vertex="1" parent="1">
          <mxGeometry x="286.25" y="1530" width="70" height="40" as="geometry" />
        </mxCell>
        <mxCell id="gDRjD2k4WUJ-grIZElaN-113" style="edgeStyle=none;curved=1;rounded=0;orthogonalLoop=1;jettySize=auto;html=1;exitX=0.5;exitY=1;exitDx=0;exitDy=0;fontSize=12;startSize=8;endSize=8;entryX=0.5;entryY=0;entryDx=0;entryDy=0;opacity=20;" edge="1" parent="1" source="gDRjD2k4WUJ-grIZElaN-112" target="gDRjD2k4WUJ-grIZElaN-116">
          <mxGeometry relative="1" as="geometry">
            <mxPoint x="176.25" y="1635" as="sourcePoint" />
            <mxPoint x="321.25" y="1570" as="targetPoint" />
          </mxGeometry>
        </mxCell>
        <mxCell id="gDRjD2k4WUJ-grIZElaN-114" style="edgeStyle=orthogonalEdgeStyle;rounded=0;orthogonalLoop=1;jettySize=auto;html=1;exitX=1;exitY=0.5;exitDx=0;exitDy=0;entryX=0;entryY=0.5;entryDx=0;entryDy=0;opacity=20;" edge="1" parent="1" source="gDRjD2k4WUJ-grIZElaN-116" target="gDRjD2k4WUJ-grIZElaN-119">
          <mxGeometry relative="1" as="geometry" />
        </mxCell>
        <mxCell id="gDRjD2k4WUJ-grIZElaN-115" style="edgeStyle=orthogonalEdgeStyle;rounded=0;orthogonalLoop=1;jettySize=auto;html=1;entryX=0;entryY=0.5;entryDx=0;entryDy=0;opacity=20;" edge="1" parent="1" source="gDRjD2k4WUJ-grIZElaN-116" target="gDRjD2k4WUJ-grIZElaN-121">
          <mxGeometry relative="1" as="geometry">
            <Array as="points">
              <mxPoint x="336.25" y="1625" />
              <mxPoint x="336.25" y="1665" />
            </Array>
          </mxGeometry>
        </mxCell>
        <mxCell id="gDRjD2k4WUJ-grIZElaN-116" value="" style="ellipse;whiteSpace=wrap;html=1;aspect=fixed;fillColor=#fad9d5;strokeColor=#ae4132;opacity=20;" vertex="1" parent="1">
          <mxGeometry x="311.25" y="1615" width="20" height="20" as="geometry" />
        </mxCell>
        <mxCell id="gDRjD2k4WUJ-grIZElaN-117" style="edgeStyle=orthogonalEdgeStyle;rounded=0;orthogonalLoop=1;jettySize=auto;html=1;exitX=1;exitY=0.5;exitDx=0;exitDy=0;opacity=20;" edge="1" parent="1" source="gDRjD2k4WUJ-grIZElaN-119">
          <mxGeometry relative="1" as="geometry">
            <mxPoint x="676.25" y="1624.9444444444443" as="targetPoint" />
          </mxGeometry>
        </mxCell>
        <mxCell id="gDRjD2k4WUJ-grIZElaN-118" style="edgeStyle=orthogonalEdgeStyle;rounded=0;orthogonalLoop=1;jettySize=auto;html=1;entryX=0.5;entryY=0;entryDx=0;entryDy=0;opacity=20;" edge="1" parent="1" source="gDRjD2k4WUJ-grIZElaN-119" target="gDRjD2k4WUJ-grIZElaN-125">
          <mxGeometry relative="1" as="geometry" />
        </mxCell>
        <mxCell id="gDRjD2k4WUJ-grIZElaN-119" value="" style="rounded=0;whiteSpace=wrap;html=1;fillColor=#fad7ac;strokeColor=#b46504;opacity=20;" vertex="1" parent="1">
          <mxGeometry x="353.75" y="1610" width="65" height="30" as="geometry" />
        </mxCell>
        <mxCell id="gDRjD2k4WUJ-grIZElaN-120" style="edgeStyle=orthogonalEdgeStyle;rounded=0;orthogonalLoop=1;jettySize=auto;html=1;exitX=1;exitY=0.5;exitDx=0;exitDy=0;entryX=0;entryY=0.5;entryDx=0;entryDy=0;opacity=20;" edge="1" parent="1" source="gDRjD2k4WUJ-grIZElaN-121" target="gDRjD2k4WUJ-grIZElaN-125">
          <mxGeometry relative="1" as="geometry" />
        </mxCell>
        <mxCell id="gDRjD2k4WUJ-grIZElaN-121" value="" style="rounded=0;whiteSpace=wrap;html=1;fillColor=#fad7ac;strokeColor=#b46504;opacity=20;" vertex="1" parent="1">
          <mxGeometry x="353.75" y="1650" width="65" height="30" as="geometry" />
        </mxCell>
        <mxCell id="gDRjD2k4WUJ-grIZElaN-122" style="edgeStyle=orthogonalEdgeStyle;rounded=0;orthogonalLoop=1;jettySize=auto;html=1;exitX=0.5;exitY=1;exitDx=0;exitDy=0;entryX=0.5;entryY=0;entryDx=0;entryDy=0;opacity=20;" edge="1" parent="1" source="gDRjD2k4WUJ-grIZElaN-123" target="gDRjD2k4WUJ-grIZElaN-107">
          <mxGeometry relative="1" as="geometry" />
        </mxCell>
        <mxCell id="gDRjD2k4WUJ-grIZElaN-123" value="" style="rounded=1;whiteSpace=wrap;html=1;fillColor=#fad9d5;strokeColor=#ae4132;arcSize=50;opacity=20;" vertex="1" parent="1">
          <mxGeometry x="491.25" y="1650" width="65" height="30" as="geometry" />
        </mxCell>
        <mxCell id="gDRjD2k4WUJ-grIZElaN-124" style="edgeStyle=orthogonalEdgeStyle;rounded=0;orthogonalLoop=1;jettySize=auto;html=1;entryX=0;entryY=0.5;entryDx=0;entryDy=0;opacity=20;" edge="1" parent="1" source="gDRjD2k4WUJ-grIZElaN-125" target="gDRjD2k4WUJ-grIZElaN-123">
          <mxGeometry relative="1" as="geometry" />
        </mxCell>
        <mxCell id="gDRjD2k4WUJ-grIZElaN-125" value="" style="ellipse;whiteSpace=wrap;html=1;aspect=fixed;fillColor=#fad9d5;strokeColor=#ae4132;opacity=20;" vertex="1" parent="1">
          <mxGeometry x="446.25" y="1655" width="20" height="20" as="geometry" />
        </mxCell>
        <mxCell id="gDRjD2k4WUJ-grIZElaN-97" style="edgeStyle=orthogonalEdgeStyle;rounded=0;orthogonalLoop=1;jettySize=auto;html=1;exitX=1;exitY=0.5;exitDx=0;exitDy=0;entryX=0;entryY=0.5;entryDx=0;entryDy=0;" edge="1" parent="1" source="gDRjD2k4WUJ-grIZElaN-71" target="gDRjD2k4WUJ-grIZElaN-116">
          <mxGeometry relative="1" as="geometry">
            <mxPoint x="303.75" y="1624.9444444444443" as="targetPoint" />
          </mxGeometry>
        </mxCell>
        <mxCell id="gDRjD2k4WUJ-grIZElaN-126" value="" style="rounded=1;whiteSpace=wrap;html=1;opacity=20;" vertex="1" parent="1">
          <mxGeometry x="-458.75" y="1590" width="280" height="160" as="geometry" />
        </mxCell>
        <mxCell id="gDRjD2k4WUJ-grIZElaN-128" style="edgeStyle=none;curved=1;rounded=0;orthogonalLoop=1;jettySize=auto;html=1;entryX=0.5;entryY=1;entryDx=0;entryDy=0;fontSize=12;startSize=8;endSize=8;opacity=20;" edge="1" parent="1" source="gDRjD2k4WUJ-grIZElaN-129" target="gDRjD2k4WUJ-grIZElaN-139">
          <mxGeometry relative="1" as="geometry">
            <mxPoint x="-401.25" y="1730" as="targetPoint" />
          </mxGeometry>
        </mxCell>
        <mxCell id="gDRjD2k4WUJ-grIZElaN-129" value="&lt;div style=&quot;line-height: 100%;&quot;&gt;x&lt;sub&gt;t+1&lt;/sub&gt;&lt;/div&gt;" style="ellipse;whiteSpace=wrap;html=1;aspect=fixed;fillColor=#b0e3e6;strokeColor=#0e8088;fontSize=16;shadow=1;opacity=20;" vertex="1" parent="1">
          <mxGeometry x="-443.75" y="1790" width="40" height="40" as="geometry" />
        </mxCell>
        <mxCell id="gDRjD2k4WUJ-grIZElaN-130" style="edgeStyle=none;curved=1;rounded=0;orthogonalLoop=1;jettySize=auto;html=1;exitX=0;exitY=0.5;exitDx=0;exitDy=0;fontSize=12;startSize=8;endSize=8;opacity=20;" edge="1" parent="1">
          <mxGeometry relative="1" as="geometry">
            <mxPoint x="-268.75" y="1625" as="sourcePoint" />
            <mxPoint x="-268.75" y="1625" as="targetPoint" />
          </mxGeometry>
        </mxCell>
        <mxCell id="gDRjD2k4WUJ-grIZElaN-131" style="edgeStyle=none;curved=1;rounded=0;orthogonalLoop=1;jettySize=auto;html=1;entryX=0.5;entryY=0;entryDx=0;entryDy=0;fontSize=12;startSize=8;endSize=8;opacity=20;" edge="1" parent="1" source="gDRjD2k4WUJ-grIZElaN-132" target="gDRjD2k4WUJ-grIZElaN-133">
          <mxGeometry relative="1" as="geometry" />
        </mxCell>
        <mxCell id="gDRjD2k4WUJ-grIZElaN-132" value="" style="rounded=1;whiteSpace=wrap;html=1;fillColor=#fad9d5;strokeColor=#ae4132;arcSize=50;opacity=20;" vertex="1" parent="1">
          <mxGeometry x="-253.75" y="1710" width="65" height="30" as="geometry" />
        </mxCell>
        <mxCell id="gDRjD2k4WUJ-grIZElaN-133" value="&lt;div style=&quot;line-height: 100%;&quot;&gt;&lt;span style=&quot;font-size: 16px;&quot;&gt;h&lt;/span&gt;&lt;sub&gt;t+1&lt;/sub&gt;&lt;/div&gt;" style="ellipse;whiteSpace=wrap;html=1;aspect=fixed;fillColor=#d0cee2;strokeColor=#56517e;shadow=1;opacity=20;" vertex="1" parent="1">
          <mxGeometry x="-241.25" y="1790" width="40" height="40" as="geometry" />
        </mxCell>
        <mxCell id="gDRjD2k4WUJ-grIZElaN-135" value="" style="rounded=0;whiteSpace=wrap;html=1;fillColor=#fff2cc;strokeColor=#d6b656;shadow=1;opacity=20;" vertex="1" parent="1">
          <mxGeometry x="-458.75" y="1530" width="70" height="40" as="geometry" />
        </mxCell>
        <mxCell id="gDRjD2k4WUJ-grIZElaN-136" style="edgeStyle=none;curved=1;rounded=0;orthogonalLoop=1;jettySize=auto;html=1;exitX=0.5;exitY=1;exitDx=0;exitDy=0;fontSize=12;startSize=8;endSize=8;entryX=0.5;entryY=0;entryDx=0;entryDy=0;opacity=20;" edge="1" parent="1" source="gDRjD2k4WUJ-grIZElaN-135" target="gDRjD2k4WUJ-grIZElaN-139">
          <mxGeometry relative="1" as="geometry">
            <mxPoint x="-568.75" y="1635" as="sourcePoint" />
            <mxPoint x="-423.75" y="1570" as="targetPoint" />
          </mxGeometry>
        </mxCell>
        <mxCell id="gDRjD2k4WUJ-grIZElaN-137" style="edgeStyle=orthogonalEdgeStyle;rounded=0;orthogonalLoop=1;jettySize=auto;html=1;exitX=1;exitY=0.5;exitDx=0;exitDy=0;entryX=0;entryY=0.5;entryDx=0;entryDy=0;opacity=20;" edge="1" parent="1" source="gDRjD2k4WUJ-grIZElaN-139" target="gDRjD2k4WUJ-grIZElaN-142">
          <mxGeometry relative="1" as="geometry" />
        </mxCell>
        <mxCell id="gDRjD2k4WUJ-grIZElaN-138" style="edgeStyle=orthogonalEdgeStyle;rounded=0;orthogonalLoop=1;jettySize=auto;html=1;entryX=0;entryY=0.5;entryDx=0;entryDy=0;opacity=20;" edge="1" parent="1" source="gDRjD2k4WUJ-grIZElaN-139" target="gDRjD2k4WUJ-grIZElaN-144">
          <mxGeometry relative="1" as="geometry">
            <Array as="points">
              <mxPoint x="-408.75" y="1625" />
              <mxPoint x="-408.75" y="1665" />
            </Array>
          </mxGeometry>
        </mxCell>
        <mxCell id="gDRjD2k4WUJ-grIZElaN-139" value="" style="ellipse;whiteSpace=wrap;html=1;aspect=fixed;fillColor=#fad9d5;strokeColor=#ae4132;opacity=20;" vertex="1" parent="1">
          <mxGeometry x="-433.75" y="1615" width="20" height="20" as="geometry" />
        </mxCell>
        <mxCell id="gDRjD2k4WUJ-grIZElaN-140" style="edgeStyle=orthogonalEdgeStyle;rounded=0;orthogonalLoop=1;jettySize=auto;html=1;exitX=1;exitY=0.5;exitDx=0;exitDy=0;entryX=0;entryY=0.5;entryDx=0;entryDy=0;" edge="1" parent="1" source="gDRjD2k4WUJ-grIZElaN-142" target="gDRjD2k4WUJ-grIZElaN-70">
          <mxGeometry relative="1" as="geometry">
            <mxPoint x="-216.25" y="1624.9444444444443" as="targetPoint" />
          </mxGeometry>
        </mxCell>
        <mxCell id="gDRjD2k4WUJ-grIZElaN-141" style="edgeStyle=orthogonalEdgeStyle;rounded=0;orthogonalLoop=1;jettySize=auto;html=1;entryX=0.5;entryY=0;entryDx=0;entryDy=0;opacity=20;" edge="1" parent="1" source="gDRjD2k4WUJ-grIZElaN-142" target="gDRjD2k4WUJ-grIZElaN-148">
          <mxGeometry relative="1" as="geometry" />
        </mxCell>
        <mxCell id="gDRjD2k4WUJ-grIZElaN-142" value="" style="rounded=0;whiteSpace=wrap;html=1;fillColor=#fad7ac;strokeColor=#b46504;opacity=20;" vertex="1" parent="1">
          <mxGeometry x="-391.25" y="1610" width="65" height="30" as="geometry" />
        </mxCell>
        <mxCell id="gDRjD2k4WUJ-grIZElaN-143" style="edgeStyle=orthogonalEdgeStyle;rounded=0;orthogonalLoop=1;jettySize=auto;html=1;exitX=1;exitY=0.5;exitDx=0;exitDy=0;entryX=0;entryY=0.5;entryDx=0;entryDy=0;opacity=20;" edge="1" parent="1" source="gDRjD2k4WUJ-grIZElaN-144" target="gDRjD2k4WUJ-grIZElaN-148">
          <mxGeometry relative="1" as="geometry" />
        </mxCell>
        <mxCell id="gDRjD2k4WUJ-grIZElaN-144" value="" style="rounded=0;whiteSpace=wrap;html=1;fillColor=#fad7ac;strokeColor=#b46504;opacity=20;" vertex="1" parent="1">
          <mxGeometry x="-391.25" y="1650" width="65" height="30" as="geometry" />
        </mxCell>
        <mxCell id="gDRjD2k4WUJ-grIZElaN-145" style="edgeStyle=orthogonalEdgeStyle;rounded=0;orthogonalLoop=1;jettySize=auto;html=1;exitX=0.5;exitY=1;exitDx=0;exitDy=0;entryX=0.5;entryY=0;entryDx=0;entryDy=0;opacity=20;" edge="1" parent="1" source="gDRjD2k4WUJ-grIZElaN-146" target="gDRjD2k4WUJ-grIZElaN-132">
          <mxGeometry relative="1" as="geometry" />
        </mxCell>
        <mxCell id="gDRjD2k4WUJ-grIZElaN-146" value="" style="rounded=1;whiteSpace=wrap;html=1;fillColor=#fad9d5;strokeColor=#ae4132;arcSize=50;opacity=20;" vertex="1" parent="1">
          <mxGeometry x="-253.75" y="1650" width="65" height="30" as="geometry" />
        </mxCell>
        <mxCell id="gDRjD2k4WUJ-grIZElaN-147" style="edgeStyle=orthogonalEdgeStyle;rounded=0;orthogonalLoop=1;jettySize=auto;html=1;entryX=0;entryY=0.5;entryDx=0;entryDy=0;opacity=20;" edge="1" parent="1" source="gDRjD2k4WUJ-grIZElaN-148" target="gDRjD2k4WUJ-grIZElaN-146">
          <mxGeometry relative="1" as="geometry" />
        </mxCell>
        <mxCell id="gDRjD2k4WUJ-grIZElaN-148" value="" style="ellipse;whiteSpace=wrap;html=1;aspect=fixed;fillColor=#fad9d5;strokeColor=#ae4132;opacity=20;" vertex="1" parent="1">
          <mxGeometry x="-298.75" y="1655" width="20" height="20" as="geometry" />
        </mxCell>
        <mxCell id="gDRjD2k4WUJ-grIZElaN-149" value="" style="rounded=0;whiteSpace=wrap;html=1;fillColor=#63FFC5;strokeColor=#0e8088;shadow=1;opacity=20;" vertex="1" parent="1">
          <mxGeometry x="-546.25" y="1580" width="70" height="40" as="geometry" />
        </mxCell>
        <mxCell id="gDRjD2k4WUJ-grIZElaN-150" style="edgeStyle=none;curved=1;rounded=0;orthogonalLoop=1;jettySize=auto;html=1;fontSize=12;startSize=8;endSize=8;entryX=0;entryY=0.5;entryDx=0;entryDy=0;opacity=20;" edge="1" parent="1">
          <mxGeometry relative="1" as="geometry">
            <mxPoint x="-556.25" y="1625" as="sourcePoint" />
            <mxPoint x="-433.75" y="1624.5" as="targetPoint" />
          </mxGeometry>
        </mxCell>
      </root>
    </mxGraphModel>
  </diagram>
</mxfile>
